<?xml version="1.0" encoding="UTF-8"?> <svg xmlns="http://www.w3.org/2000/svg" width="34" height="34" viewBox="0 0 34 34" fill="none"><rect width="33.3333" height="33.3333" transform="translate(0.527344 0.333008)" fill="#455F53"></rect><path d="M22.806 15.5847C22.8949 15.5175 23.027 15.5804 23.027 15.6867V20.1247C23.027 20.6998 22.5371 21.1663 21.9333 21.1663H12.4541C11.8503 21.1663 11.3604 20.6998 11.3604 20.1247V15.6889C11.3604 15.5804 11.4902 15.5196 11.5814 15.5869C12.0918 15.9645 12.7686 16.4441 15.0928 18.0522C15.5736 18.3864 16.3848 19.0895 17.1937 19.0852C18.0072 19.0917 18.8343 18.3734 19.2969 18.0522C21.6211 16.4441 22.2956 15.9623 22.806 15.5847ZM17.1937 18.3886C17.7223 18.3972 18.4834 17.7549 18.8662 17.4901C21.89 15.4003 22.1201 15.218 22.8174 14.6972C22.9495 14.5995 23.027 14.4476 23.027 14.287V13.8747C23.027 13.2996 22.5371 12.833 21.9333 12.833H12.4541C11.8503 12.833 11.3604 13.2996 11.3604 13.8747V14.287C11.3604 14.4476 11.4378 14.5973 11.57 14.6972C12.2673 15.2158 12.4974 15.4003 15.5212 17.4901C15.904 17.7549 16.665 18.3972 17.1937 18.3886Z" fill="#F1EFEE"></path></svg> 