<?xml version="1.0" encoding="UTF-8"?> <svg xmlns="http://www.w3.org/2000/svg" width="259" height="142" viewBox="0 0 259 142" fill="none"><g clip-path="url(#clip0_2152_198)"><mask id="mask0_2152_198" style="mask-type:luminance" maskUnits="userSpaceOnUse" x="0" y="0" width="259" height="142"><path d="M259 0H0V142H259V0Z" fill="white"></path></mask><g mask="url(#mask0_2152_198)"><path opacity="0.7" d="M293.385 23.7594C237.551 94.5927 142.496 143.343 127.968 125.009C113.44 106.676 201.302 137.926 100.468 140.843C-0.36515 143.759 -37.0318 -10.8239 49.6348 14.5928M49.6348 14.5928C48.2458 9.31497 46.8844 -0.740597 52.5511 1.2594C58.2178 3.2594 52.968 10.9816 49.6348 14.5928ZM49.6348 14.5928C52.2736 18.7594 58.1344 25.8427 60.4678 20.8427C62.8011 15.8428 54.218 14.5928 49.6348 14.5928Z" stroke="white" stroke-width="0.833333"></path></g></g><defs><clipPath id="clip0_2152_198"><rect width="259" height="142" fill="white"></rect></clipPath></defs></svg> 