<?xml version="1.0" encoding="UTF-8"?> <svg xmlns="http://www.w3.org/2000/svg" width="100" height="100" viewBox="0 0 100 100" fill="none"><circle cx="50" cy="50" r="48.5" stroke="white" stroke-width="3"></circle><path d="M39.2917 45.4167H51.5417M45.4167 39.2917V51.5417M67.875 67.875L55.625 55.625M31.125 45.4167C31.125 47.2935 31.4947 49.1519 32.2129 50.8859C32.9311 52.6198 33.9838 54.1953 35.3109 55.5224C36.638 56.8495 38.2135 57.9022 39.9475 58.6204C41.6814 59.3387 43.5399 59.7083 45.4167 59.7083C47.2935 59.7083 49.1519 59.3387 50.8859 58.6204C52.6198 57.9022 54.1953 56.8495 55.5224 55.5224C56.8495 54.1953 57.9022 52.6198 58.6204 50.8859C59.3387 49.1519 59.7083 47.2935 59.7083 45.4167C59.7083 43.5399 59.3387 41.6814 58.6204 39.9475C57.9022 38.2135 56.8495 36.638 55.5224 35.3109C54.1953 33.9838 52.6198 32.9311 50.8859 32.2129C49.1519 31.4947 47.2935 31.125 45.4167 31.125C43.5399 31.125 41.6814 31.4947 39.9475 32.2129C38.2135 32.9311 36.638 33.9838 35.3109 35.3109C33.9838 36.638 32.9311 38.2135 32.2129 39.9475C31.4947 41.6814 31.125 43.5399 31.125 45.4167Z" stroke="white" stroke-width="3" stroke-linecap="round" stroke-linejoin="round"></path></svg> 