<svg class="icon-decrease" width="17" height="17" viewBox="0 0 17 17" fill="none" xmlns="http://www.w3.org/2000/svg">
		<path fill="black" fill-rule="evenodd" clip-rule="evenodd" d="M4.23883 7.92757C4.23883 7.5963 4.50698 7.32835 4.83822 7.32819L11.1352 7.3275C11.4664 7.3275 11.7356 7.59579 11.736 7.92688C11.736 8.25809 11.467 8.52669 11.1359 8.52696L4.83822 8.52696C4.50702 8.5268 4.23889 8.2588 4.23883 7.92757Z"></path>
		<path stroke="black" d="M12.9865 12.9866C10.1529 15.8202 5.55872 15.8202 2.72512 12.9866C-0.108484 10.153 -0.108484 5.55882 2.72512 2.72522C5.55872 -0.108386 10.1529 -0.108385 12.9865 2.72522C15.8201 5.55882 15.8201 10.153 12.9865 12.9866ZM12.9865 12.9866L16.308 16.3081" stroke-width="1.2" stroke-linecap="round"></path>
	</svg>