<?xml version="1.0" encoding="UTF-8"?> <svg xmlns="http://www.w3.org/2000/svg" width="34" height="34" viewBox="0 0 34 34" fill="none"><g clip-path="url(#clip0_2187_609)"><path d="M33.8606 0.333008H0.527344V33.6663H33.8606V0.333008Z" fill="#32483E"></path><path d="M22.805 15.5847C22.8939 15.5175 23.026 15.5804 23.026 15.6867V20.1247C23.026 20.6998 22.5361 21.1663 21.9323 21.1663H12.4531C11.8493 21.1663 11.3594 20.6998 11.3594 20.1247V15.6889C11.3594 15.5804 11.4892 15.5196 11.5804 15.5869C12.0908 15.9645 12.7676 16.4441 15.0918 18.0522C15.5726 18.3864 16.3838 19.0895 17.1927 19.0852C18.0062 19.0917 18.8333 18.3734 19.2959 18.0522C21.6201 16.4441 22.2946 15.9623 22.805 15.5847ZM17.1927 18.3886C17.7213 18.3972 18.4824 17.7549 18.8652 17.4901C21.889 15.4003 22.1191 15.218 22.8164 14.6972C22.9485 14.5995 23.026 14.4476 23.026 14.287V13.8747C23.026 13.2996 22.5361 12.833 21.9323 12.833H12.4531C11.8493 12.833 11.3594 13.2996 11.3594 13.8747V14.287C11.3594 14.4476 11.4368 14.5973 11.569 14.6972C12.2663 15.2158 12.4964 15.4003 15.5202 17.4901C15.903 17.7549 16.664 18.3972 17.1927 18.3886Z" fill="#F1EFEE"></path></g><defs><clipPath id="clip0_2187_609"><rect width="34" height="34" fill="white"></rect></clipPath></defs></svg> 