<?xml version="1.0" encoding="UTF-8"?> <svg xmlns="http://www.w3.org/2000/svg" width="34" height="35" viewBox="0 0 34 35" fill="none"><rect width="33.3333" height="33.3333" transform="translate(0.527344 0.833008)" fill="#455F53"></rect><path d="M24.9603 22.7142H23.0956C22.3904 22.7142 22.1779 22.143 20.9138 20.8781C19.8091 19.8134 19.3425 19.681 19.063 19.681C18.6765 19.681 18.5711 19.7872 18.5711 20.3192V21.9959C18.5711 22.4495 18.424 22.715 17.2392 22.715C16.0897 22.6378 14.975 22.2886 13.9869 21.6962C12.9988 21.1038 12.1656 20.2851 11.556 19.3076C10.1088 17.5055 9.10161 15.3909 8.61426 13.1316C8.61426 12.8522 8.72049 12.5988 9.25326 12.5988H11.1163C11.5952 12.5988 11.7676 12.8121 11.9555 13.3049C12.8601 15.9671 14.4037 18.2829 15.0304 18.2829C15.2707 18.2829 15.3753 18.1766 15.3753 17.5777V14.8354C15.296 13.5843 14.6317 13.4789 14.6317 13.0262C14.6401 12.9068 14.6947 12.7953 14.784 12.7155C14.8732 12.6357 14.9901 12.5939 15.1097 12.5988H18.0383C18.4387 12.5988 18.5711 12.7982 18.5711 13.2771V16.9787C18.5711 17.3783 18.7427 17.5107 18.8636 17.5107C19.1039 17.5107 19.2885 17.3783 19.729 16.9387C20.6727 15.787 21.444 14.5043 22.0186 13.1308C22.0771 12.9657 22.1882 12.8244 22.3348 12.7284C22.4813 12.6325 22.6553 12.5873 22.83 12.5997H24.6939C25.2528 12.5997 25.3713 12.8791 25.2528 13.2779C24.5747 14.7964 23.7359 16.2379 22.7508 17.5777C22.5497 17.8841 22.4697 18.0434 22.7508 18.403C22.9354 18.6824 23.5891 19.2283 24.0279 19.7472C24.6669 20.3845 25.1973 21.1216 25.5985 21.9289C25.7586 22.4486 25.4923 22.7142 24.9603 22.7142Z" fill="#F1EFEE"></path></svg> 