<?xml version="1.0" encoding="UTF-8"?> <svg xmlns="http://www.w3.org/2000/svg" width="34" height="35" viewBox="0 0 34 35" fill="none"><g clip-path="url(#clip0_2187_612)"><path d="M33.8606 0.833008H0.527344V34.1663H33.8606V0.833008Z" fill="#32483E"></path><path d="M24.9593 22.7142H23.0946C22.3894 22.7142 22.1769 22.143 20.9128 20.8781C19.8081 19.8134 19.3415 19.681 19.062 19.681C18.6755 19.681 18.5701 19.7872 18.5701 20.3192V21.9959C18.5701 22.4495 18.423 22.715 17.2382 22.715C16.0887 22.6378 14.974 22.2886 13.9859 21.6962C12.9978 21.1038 12.1646 20.2851 11.555 19.3076C10.1078 17.5055 9.10063 15.3909 8.61328 13.1316C8.61328 12.8522 8.71951 12.5988 9.25228 12.5988H11.1153C11.5942 12.5988 11.7666 12.8121 11.9545 13.3049C12.8591 15.9671 14.4027 18.2829 15.0294 18.2829C15.2697 18.2829 15.3743 18.1766 15.3743 17.5777V14.8354C15.295 13.5843 14.6307 13.4789 14.6307 13.0262C14.6391 12.9068 14.6937 12.7953 14.783 12.7155C14.8722 12.6357 14.9891 12.5939 15.1087 12.5988H18.0373C18.4377 12.5988 18.5701 12.7982 18.5701 13.2771V16.9787C18.5701 17.3783 18.7417 17.5107 18.8626 17.5107C19.1029 17.5107 19.2875 17.3783 19.728 16.9387C20.6717 15.787 21.443 14.5043 22.0176 13.1308C22.0761 12.9657 22.1872 12.8244 22.3338 12.7284C22.4803 12.6325 22.6543 12.5873 22.829 12.5997H24.6929C25.2518 12.5997 25.3703 12.8791 25.2518 13.2779C24.5737 14.7964 23.7349 16.2379 22.7498 17.5777C22.5487 17.8841 22.4687 18.0434 22.7498 18.403C22.9344 18.6824 23.5881 19.2283 24.0269 19.7472C24.6659 20.3845 25.1963 21.1216 25.5975 21.9289C25.7576 22.4486 25.4913 22.7142 24.9593 22.7142Z" fill="#F1EFEE"></path></g><defs><clipPath id="clip0_2187_612"><rect width="34" height="35" fill="white"></rect></clipPath></defs></svg> 