<svg width="14" height="14" viewBox="0 0 14 14" fill="none" xmlns="http://www.w3.org/2000/svg">
			<path fill="black" fill-rule="evenodd" clip-rule="evenodd" d="M12.1757 0.175732C12.4101 -0.0585748 12.7891 -0.0585799 13.0234 0.175732C13.2576 0.410053 13.2577 0.789111 13.0234 1.02339L7.44722 6.59956L13.0234 12.1757C13.2576 12.4101 13.2577 12.7891 13.0234 13.0234C12.7891 13.2577 12.4101 13.2576 12.1757 13.0234L6.59956 7.44722L1.02339 13.0234C0.789107 13.2576 0.410026 13.2576 0.175736 13.0234C-0.0585454 12.7891 -0.0584791 12.4101 0.175736 12.1757L5.75191 6.59956L0.175736 1.02339C-0.0585786 0.789074 -0.0585786 0.410047 0.175736 0.175732C0.410051 -0.0585748 0.78908 -0.0585799 1.02339 0.175732L6.59956 5.7519L12.1757 0.175732Z"></path>
		</svg>