<svg class="icon-increase" width="17" height="17" viewBox="0 0 17 17" fill="none" xmlns="http://www.w3.org/2000/svg">
		<path fill="black" fill-rule="evenodd" clip-rule="evenodd" d="M7.3878 4.77866C7.38786 4.44735 7.65586 4.17929 7.98718 4.17927C8.31852 4.17927 8.58651 4.44734 8.58657 4.77866L8.58588 7.32742H11.1353C11.4665 7.32742 11.7358 7.59571 11.7361 7.9268C11.7361 8.25801 11.4672 8.52661 11.136 8.52688H8.58657L8.58726 11.0756C8.58726 11.407 8.31855 11.6757 7.98718 11.6757C7.65582 11.6757 7.38711 11.407 7.38711 11.0756L7.38642 8.52688L4.83835 8.52688C4.50715 8.52672 4.23902 8.25872 4.23896 7.92749C4.23896 7.59622 4.50711 7.32827 4.83835 7.32811L7.38711 7.32742L7.3878 4.77866Z"></path>
		<path stroke="black" d="M12.9865 12.9866C10.1529 15.8202 5.55872 15.8202 2.72512 12.9866C-0.108484 10.153 -0.108484 5.55879 2.72512 2.72519C5.55872 -0.108416 10.1529 -0.108415 12.9865 2.72519C15.8201 5.55879 15.8201 10.153 12.9865 12.9866ZM12.9865 12.9866L16.308 16.3081" stroke-width="1.2" stroke-linecap="round"></path>
	</svg>