<?xml version="1.0" encoding="UTF-8"?> <svg xmlns="http://www.w3.org/2000/svg" width="89" height="220" viewBox="0 0 89 220" fill="none"><path opacity="0.7" d="M15.093 124.186C34.093 146.853 23.0096 197.242 15.093 219.603C45.2319 198.631 100.51 128.27 80.5098 14.6033M15.093 124.186C16.6207 120.298 18.7596 112.603 15.093 112.937C11.4263 113.27 13.5652 120.575 15.093 124.186ZM15.093 124.186C10.9263 121.825 2.67647 118.02 3.0098 121.686C3.34314 125.353 11.2041 124.881 15.093 124.186ZM80.5098 14.6033C83.4264 13.2144 88.5931 9.85329 85.9264 7.51996C83.2598 5.18663 81.2042 11.27 80.5098 14.6033ZM80.5098 14.6033C80.3709 11.6866 79.1764 6.18658 75.5098 7.51996C71.8431 8.85334 77.3153 12.7978 80.5098 14.6033Z" stroke="#455F53" stroke-width="0.833333"></path></svg> 